<svg width="128" height="119" viewBox="0 0 128 119" fill="none" xmlns="http://www.w3.org/2000/svg">
<path d="M98.2547 118.1H29.744C13.316 118.1 0 104.782 0 88.3543C0 71.9276 13.316 58.6103 29.744 58.6103H98.2547C114.681 58.6103 128 71.9276 128 88.3543C128 104.782 114.681 118.1 98.2547 118.1Z" fill="#3B82F6"/>
<path d="M105.873 78.685C101.706 78.4543 98.1116 80.997 96.7356 84.6303H64.4569V91.1396H96.7356C98.0529 94.621 101.406 97.101 105.349 97.101C110.634 97.101 114.881 92.6503 114.546 87.293C114.257 82.681 110.485 78.9396 105.873 78.685Z" fill="#FDFEFF"/>
<path d="M109.926 87.8855C109.926 90.4135 107.877 92.4628 105.349 92.4628C102.821 92.4628 100.772 90.4135 100.772 87.8855C100.772 85.3575 102.821 83.3082 105.349 83.3082C107.877 83.3082 109.926 85.3575 109.926 87.8855Z" fill="#3B82F6"/>
<path d="M64.4563 112.376H29.0949C15.8283 112.376 5.07361 101.622 5.07361 88.3549C5.07361 75.0882 15.8283 64.3336 29.0949 64.3336H64.4563V112.376Z" fill="white"/>
<path d="M39.3394 58.6105H33.3674V45.3612H39.3394V58.6105Z" fill="#3B82F6"/>
<path d="M49.2871 2.04494H47.3858V0.000946045H43.5804V7.89428H47.3858V5.85028H49.2871C51.5964 5.85028 53.4764 7.72895 53.4764 10.0396V24.9823C53.4764 34.4236 45.7951 42.1049 36.3524 42.1049C26.9111 42.1049 19.2298 34.4236 19.2298 24.9823V10.0396C19.2298 7.72895 21.1084 5.85028 23.4191 5.85028H24.5511V7.89428H28.3578V0.000946045H24.5511V2.04494H23.4191C19.0098 2.04494 15.4244 5.63028 15.4244 10.0396V24.9823C15.4244 27.8076 15.9778 30.5476 17.0698 33.1289C18.1244 35.6223 19.6324 37.8596 21.5538 39.7809C23.4764 41.7023 25.7124 43.2116 28.2058 44.2663C30.7871 45.3569 33.5284 45.9103 36.3524 45.9103C39.1778 45.9103 41.9191 45.3569 44.4991 44.2663C46.9911 43.2116 49.2298 41.7023 51.1511 39.7809C53.0738 37.8596 54.5818 35.6223 55.6364 33.1289C56.7271 30.5476 57.2818 27.8076 57.2818 24.9823V10.0396C57.2818 5.63028 53.6951 2.04494 49.2871 2.04494Z" fill="#3B82F6"/>
<path d="M43.7415 79.0059V84.6219C37.8882 84.6219 33.1509 80.6312 33.1509 74.7792V68.2299H39.0775L38.9895 72.4446C38.9895 75.6366 40.7695 78.2832 43.7415 79.0059Z" fill="#3B82F6"/>
<path d="M64.4635 84.6226H43.7408V78.9906H64.4635V84.6226Z" fill="#3B82F6"/>
</svg>
