<svg width="232" height="178" viewBox="0 0 232 178" fill="none" xmlns="http://www.w3.org/2000/svg">
<path d="M13.0697 157L7.34049 138.331H7.19401C7.21571 138.776 7.24826 139.449 7.29167 140.35C7.34592 141.239 7.39475 142.189 7.43815 143.198C7.48155 144.207 7.50325 145.118 7.50325 145.932V157H2.99479V133.204H9.86328L15.4948 151.401H15.5924L21.5658 133.204H28.4342V157H23.7305V145.737C23.7305 144.988 23.7413 144.126 23.763 143.149C23.7956 142.173 23.8335 141.245 23.877 140.366C23.9204 139.476 23.9529 138.809 23.9746 138.364H23.8281L17.6921 157H13.0697ZM46.8457 143.003L51.8099 133.204H57.2461L49.3522 147.739V157H44.3392V147.902L36.4453 133.204H41.9141L46.8457 143.003ZM98.3984 157H93.3691V146.73H83.9453V157H78.8997V133.204H83.9453V142.531H93.3691V133.204H98.3984V157ZM123.125 157H109.421V133.204H123.125V137.339H114.466V142.563H122.523V146.697H114.466V152.833H123.125V157ZM147.673 157L145.947 151.336H137.272L135.547 157H130.111L138.509 133.107H144.678L153.109 157H147.673ZM144.743 147.104L143.018 141.57C142.909 141.201 142.763 140.729 142.578 140.154C142.405 139.568 142.225 138.977 142.041 138.38C141.867 137.773 141.726 137.246 141.618 136.801C141.509 137.246 141.357 137.8 141.162 138.462C140.978 139.113 140.799 139.731 140.625 140.317C140.451 140.903 140.327 141.321 140.251 141.57L138.542 147.104H144.743ZM161.12 157V133.204H166.165V152.833H175.817V157H161.12ZM194.147 157H189.102V137.404H182.64V133.204H200.609V137.404H194.147V157ZM228.77 157H223.74V146.73H214.316V157H209.271V133.204H214.316V142.531H223.74V133.204H228.77V157Z" fill="#3B82F6"/>
<path d="M3.56 176.903V176.623C4.04 176.623 4.32 176.534 4.4 176.357V169.65C4.32 169.472 4.04 169.383 3.56 169.383V169.103H8.93333V170.397H8.65333C8.65333 169.917 8.56444 169.637 8.38667 169.557H5.62667V172.623H7.49333C7.67111 172.543 7.76 172.263 7.76 171.783H8.04V173.917H7.76C7.76 173.437 7.67111 173.157 7.49333 173.077H5.62667V176.357C5.70667 176.534 5.98667 176.623 6.46667 176.623V176.903H3.56ZM13.6897 176.903V176.623C14.1697 176.623 14.4497 176.534 14.5297 176.357V169.65C14.4497 169.472 14.1697 169.383 13.6897 169.383V169.103H16.703C17.8052 169.103 18.6408 169.303 19.2097 169.703C19.7786 170.103 20.063 170.561 20.063 171.077C20.063 171.565 19.9164 171.997 19.623 172.37C19.3297 172.734 18.8941 173.001 18.3164 173.17L20.0897 176.343C20.1786 176.53 20.4719 176.623 20.9697 176.623V176.903H20.3964C19.7741 176.903 19.3697 176.868 19.183 176.797C18.9964 176.725 18.8097 176.53 18.623 176.21L17.0097 173.357H15.7564V176.357C15.8364 176.534 16.1164 176.623 16.5964 176.623V176.903H13.6897ZM15.7564 169.557V172.903H16.863C17.5741 172.903 18.063 172.765 18.3297 172.49C18.5964 172.214 18.7297 171.748 18.7297 171.09C18.7297 170.601 18.5786 170.223 18.2764 169.957C17.983 169.69 17.4586 169.557 16.703 169.557H15.7564ZM26.6637 172.903C26.6637 173.49 26.7437 174.054 26.9037 174.597C27.0726 175.13 27.3437 175.597 27.7171 175.997C28.0993 176.388 28.5526 176.583 29.0771 176.583C29.6015 176.583 30.0415 176.397 30.3971 176.023C30.7615 175.65 31.0149 175.214 31.1571 174.717C31.3082 174.21 31.3837 173.677 31.3837 173.117C31.3837 172.539 31.2993 171.979 31.1304 171.437C30.9615 170.885 30.686 170.414 30.3037 170.023C29.9304 169.623 29.486 169.423 28.9704 169.423C28.5704 169.423 28.2149 169.53 27.9037 169.743C27.6015 169.957 27.3615 170.241 27.1837 170.597C27.0149 170.943 26.886 171.312 26.7971 171.703C26.7082 172.094 26.6637 172.494 26.6637 172.903ZM25.3304 173.01C25.3304 171.899 25.6771 170.948 26.3704 170.157C27.0637 169.365 27.9482 168.97 29.0237 168.97C30.0993 168.97 30.9837 169.365 31.6771 170.157C32.3704 170.948 32.7171 171.899 32.7171 173.01C32.7171 174.121 32.366 175.072 31.6637 175.863C30.9704 176.645 30.0904 177.037 29.0237 177.037C27.9393 177.037 27.0504 176.645 26.3571 175.863C25.6726 175.081 25.3304 174.13 25.3304 173.01ZM37.6209 176.903V176.623C38.1009 176.623 38.3809 176.534 38.4609 176.357V169.65C38.3809 169.472 38.1009 169.383 37.6209 169.383V169.103H39.5676L42.4076 175.303L45.2476 169.103H47.2209V169.383C46.7409 169.383 46.4609 169.472 46.3809 169.65V176.357C46.4609 176.534 46.7409 176.623 47.2209 176.623V176.903H44.3143V176.623C44.7943 176.623 45.0743 176.534 45.1543 176.357V170.37L42.1676 176.903H41.9676L38.9143 170.29V176.357C38.9943 176.534 39.2743 176.623 39.7543 176.623V176.903H37.6209ZM61.3402 173.037V176.45H62.4735C63.718 176.45 64.3402 175.845 64.3402 174.637C64.3402 174.219 64.1846 173.85 63.8735 173.53C63.5624 173.201 63.0424 173.037 62.3135 173.037H61.3402ZM61.3402 169.557V172.65H61.8869C63.1313 172.65 63.7535 172.085 63.7535 170.957C63.7535 170.023 63.078 169.557 61.7269 169.557H61.3402ZM59.2735 176.903V176.623C59.7535 176.623 60.0335 176.534 60.1135 176.357V169.65C60.0335 169.472 59.7535 169.383 59.2735 169.383V169.103H61.7269C62.838 169.103 63.6735 169.285 64.2335 169.65C64.8024 170.014 65.0869 170.445 65.0869 170.943C65.0869 171.85 64.6158 172.463 63.6735 172.783C64.3402 172.934 64.838 173.183 65.1669 173.53C65.5046 173.868 65.6735 174.232 65.6735 174.623C65.6735 175.299 65.4024 175.85 64.8602 176.277C64.3269 176.694 63.5313 176.903 62.4735 176.903H59.2735ZM70.484 176.903V176.623C70.964 176.623 71.244 176.534 71.324 176.357V169.65C71.244 169.472 70.964 169.383 70.484 169.383V169.103H73.3906V169.383C72.9106 169.383 72.6306 169.472 72.5506 169.65V176.357C72.6306 176.534 72.9106 176.623 73.3906 176.623V176.903H70.484ZM78.3741 176.903V176.623C78.8541 176.623 79.1341 176.534 79.2141 176.357V169.65C79.1341 169.472 78.8541 169.383 78.3741 169.383V169.103H81.3874C82.4896 169.103 83.3252 169.303 83.8941 169.703C84.4629 170.103 84.7474 170.561 84.7474 171.077C84.7474 171.565 84.6007 171.997 84.3074 172.37C84.0141 172.734 83.5785 173.001 83.0007 173.17L84.7741 176.343C84.8629 176.53 85.1563 176.623 85.6541 176.623V176.903H85.0807C84.4585 176.903 84.0541 176.868 83.8674 176.797C83.6807 176.725 83.4941 176.53 83.3074 176.21L81.6941 173.357H80.4407V176.357C80.5207 176.534 80.8007 176.623 81.2807 176.623V176.903H78.3741ZM80.4407 169.557V172.903H81.5474C82.2585 172.903 82.7474 172.765 83.0141 172.49C83.2807 172.214 83.4141 171.748 83.4141 171.09C83.4141 170.601 83.2629 170.223 82.9607 169.957C82.6674 169.69 82.1429 169.557 81.3874 169.557H80.4407ZM89.5509 169.103H96.2443V170.397H95.9643C95.9643 169.917 95.8754 169.637 95.6976 169.557H93.5109V176.357C93.5909 176.534 93.8709 176.623 94.3509 176.623V176.903H91.4443V176.623C91.9243 176.623 92.2043 176.534 92.2843 176.357V169.557H90.0976C89.9198 169.637 89.8309 169.917 89.8309 170.397H89.5509V169.103ZM100.912 176.903V176.623C101.392 176.623 101.672 176.534 101.752 176.357V169.65C101.672 169.472 101.392 169.383 100.912 169.383V169.103H103.819V169.383C103.339 169.383 103.059 169.472 102.979 169.65V172.623H106.392V169.65C106.312 169.472 106.032 169.383 105.552 169.383V169.103H108.459V169.383C107.979 169.383 107.699 169.472 107.619 169.65V176.357C107.699 176.534 107.979 176.623 108.459 176.623V176.903H105.552V176.623C106.032 176.623 106.312 176.534 106.392 176.357V173.077H102.979V176.357C103.059 176.534 103.339 176.623 103.819 176.623V176.903H100.912ZM120.2 169.103H126.894V170.397H126.614C126.614 169.917 126.525 169.637 126.347 169.557H124.16V176.357C124.24 176.534 124.52 176.623 125 176.623V176.903H122.094V176.623C122.574 176.623 122.854 176.534 122.934 176.357V169.557H120.747C120.569 169.637 120.48 169.917 120.48 170.397H120.2V169.103ZM132.726 172.903C132.726 173.49 132.806 174.054 132.966 174.597C133.135 175.13 133.406 175.597 133.78 175.997C134.162 176.388 134.615 176.583 135.14 176.583C135.664 176.583 136.104 176.397 136.46 176.023C136.824 175.65 137.077 175.214 137.22 174.717C137.371 174.21 137.446 173.677 137.446 173.117C137.446 172.539 137.362 171.979 137.193 171.437C137.024 170.885 136.748 170.414 136.366 170.023C135.993 169.623 135.548 169.423 135.033 169.423C134.633 169.423 134.277 169.53 133.966 169.743C133.664 169.957 133.424 170.241 133.246 170.597C133.077 170.943 132.948 171.312 132.86 171.703C132.771 172.094 132.726 172.494 132.726 172.903ZM131.393 173.01C131.393 171.899 131.74 170.948 132.433 170.157C133.126 169.365 134.011 168.97 135.086 168.97C136.162 168.97 137.046 169.365 137.74 170.157C138.433 170.948 138.78 171.899 138.78 173.01C138.78 174.121 138.428 175.072 137.726 175.863C137.033 176.645 136.153 177.037 135.086 177.037C134.002 177.037 133.113 176.645 132.42 175.863C131.735 175.081 131.393 174.13 131.393 173.01ZM150.844 176.903V176.623C151.324 176.623 151.604 176.534 151.684 176.357V169.65C151.604 169.472 151.324 169.383 150.844 169.383V169.103H153.751V169.383C153.271 169.383 152.991 169.472 152.911 169.65V176.357C152.991 176.534 153.271 176.623 153.751 176.623V176.903H150.844ZM158.734 176.903V176.623C159.214 176.623 159.494 176.534 159.574 176.357V169.65C159.494 169.472 159.214 169.383 158.734 169.383V169.103H160.521L164.934 174.557V169.65C164.854 169.472 164.574 169.383 164.094 169.383V169.103H166.228V169.383C165.748 169.383 165.468 169.472 165.388 169.65V176.903H165.268L160.028 170.277V176.357C160.108 176.534 160.388 176.623 160.868 176.623V176.903H158.734ZM171.091 176.903V176.623C171.571 176.623 171.851 176.534 171.931 176.357V169.65C171.851 169.472 171.571 169.383 171.091 169.383V169.103H176.464V170.397H176.184C176.184 169.917 176.095 169.637 175.917 169.557H173.157V172.623H175.024C175.202 172.543 175.291 172.263 175.291 171.783H175.571V173.917H175.291C175.291 173.437 175.202 173.157 175.024 173.077H173.157V176.357C173.237 176.534 173.517 176.623 173.997 176.623V176.903H171.091ZM181.22 176.903V176.623C181.7 176.623 181.98 176.534 182.06 176.357V169.65C181.98 169.472 181.7 169.383 181.22 169.383V169.103H184.127V169.383C183.647 169.383 183.367 169.472 183.287 169.65V176.357C183.367 176.534 183.647 176.623 184.127 176.623V176.903H181.22ZM189.111 176.903V176.623C189.591 176.623 189.871 176.534 189.951 176.357V169.65C189.871 169.472 189.591 169.383 189.111 169.383V169.103H190.897L195.311 174.557V169.65C195.231 169.472 194.951 169.383 194.471 169.383V169.103H196.604V169.383C196.124 169.383 195.844 169.472 195.764 169.65V176.903H195.644L190.404 170.277V176.357C190.484 176.534 190.764 176.623 191.244 176.623V176.903H189.111ZM201.467 176.903V176.623C201.947 176.623 202.227 176.534 202.307 176.357V169.65C202.227 169.472 201.947 169.383 201.467 169.383V169.103H204.373V169.383C203.893 169.383 203.613 169.472 203.533 169.65V176.357C203.613 176.534 203.893 176.623 204.373 176.623V176.903H201.467ZM209.037 169.103H215.73V170.397H215.45C215.45 169.917 215.361 169.637 215.184 169.557H212.997V176.357C213.077 176.534 213.357 176.623 213.837 176.623V176.903H210.93V176.623C211.41 176.623 211.69 176.534 211.77 176.357V169.557H209.584C209.406 169.637 209.317 169.917 209.317 170.397H209.037V169.103ZM222.638 169.103V169.383C222.22 169.383 221.962 169.437 221.865 169.543L223.931 173.157L226.065 169.623C225.967 169.463 225.691 169.383 225.238 169.383V169.103H227.425V169.383C227.051 169.383 226.798 169.441 226.665 169.557L224.265 173.543V176.357C224.345 176.534 224.625 176.623 225.105 176.623V176.903H222.198V176.623C222.678 176.623 222.958 176.534 223.038 176.357V173.97L220.571 169.65C220.447 169.472 220.162 169.383 219.718 169.383V169.103H222.638Z" fill="#384252"/>
<path d="M150.255 118.099H81.744C65.316 118.099 52 104.781 52 88.3535C52 71.9268 65.316 58.6095 81.744 58.6095H150.255C166.681 58.6095 180 71.9268 180 88.3535C180 104.781 166.681 118.099 150.255 118.099Z" fill="#3B82F6"/>
<path d="M157.869 78.6828C153.702 78.4521 150.108 80.9948 148.733 84.6295H116.453V91.1388H148.733C150.05 94.6188 153.404 97.0988 157.346 97.0988C162.632 97.0988 166.878 92.6495 166.542 87.2908C166.254 82.6788 162.482 78.9388 157.869 78.6828Z" fill="#FDFEFF"/>
<path d="M161.929 87.8834C161.929 90.4114 159.88 92.4621 157.352 92.4621C154.823 92.4621 152.773 90.4114 152.773 87.8834C152.773 85.3554 154.823 83.3061 157.352 83.3061C159.88 83.3061 161.929 85.3554 161.929 87.8834Z" fill="#3B82F6"/>
<path d="M116.453 112.376H81.0916C67.825 112.376 57.0703 101.621 57.0703 88.3535C57.0703 75.0868 67.825 64.3335 81.0916 64.3335H116.453V112.376Z" fill="white"/>
<path d="M91.3392 58.6086H85.3672V45.3579H91.3392V58.6086Z" fill="#3B82F6"/>
<path d="M101.285 2.044H99.3845V0H95.5779V7.89467H99.3845V5.84933H101.285C103.594 5.84933 105.474 7.72933 105.474 10.0373V24.9813C105.474 34.4227 97.7912 42.104 88.3499 42.104C78.9085 42.104 71.2272 34.4227 71.2272 24.9813V10.0373C71.2272 7.72933 73.1059 5.84933 75.4152 5.84933H76.5499V7.89467H80.3552V0H76.5499V2.044H75.4152C71.0072 2.044 67.4219 5.62933 67.4219 10.0373V24.9813C67.4219 27.8053 67.9752 30.5467 69.0672 33.128C70.1205 35.6213 71.6299 37.8587 73.5512 39.78C75.4725 41.7013 77.7112 43.2107 80.2032 44.264C82.7845 45.356 85.5259 45.9093 88.3499 45.9093C91.1739 45.9093 93.9165 45.356 96.4979 44.264C98.9899 43.2107 101.229 41.7013 103.149 39.78C105.07 37.8587 106.579 35.6213 107.634 33.128C108.726 30.5467 109.279 27.8053 109.279 24.9813V10.0373C109.279 5.62933 105.693 2.044 101.285 2.044Z" fill="#3B82F6"/>
<path d="M95.7378 79.0049V84.6222C89.8858 84.6222 85.1484 80.6302 85.1484 74.7782V68.2289H91.0751L90.9858 72.4436C90.9858 75.6356 92.7658 78.2809 95.7378 79.0049Z" fill="#3B82F6"/>
<path d="M116.465 84.6222H95.7422V78.9889H116.465V84.6222Z" fill="#3B82F6"/>
</svg>
