<svg width="283" height="56" viewBox="0 0 283 56" fill="none" xmlns="http://www.w3.org/2000/svg">
<path d="M34.5427 56H10.4569C4.68141 56 0 50.9256 0 44.6659C0 38.4068 4.68141 33.3324 10.4569 33.3324H34.5427C40.3177 33.3324 45 38.4068 45 44.6659C45 50.9256 40.3177 56 34.5427 56Z" fill="#3B82F6"/>
<path d="M37.2196 40.9811C35.7548 40.8932 34.491 41.862 34.0077 43.247H22.6593V45.7272H34.0077C34.4709 47.0533 35.6498 47.9982 37.0359 47.9982C38.894 47.9982 40.387 46.3029 40.2688 44.261C40.1676 42.5037 38.8415 41.0786 37.2196 40.9811Z" fill="#FDFEFF"/>
<path d="M38.6471 44.4868C38.6471 45.4501 37.9266 46.2315 37.0378 46.2315C36.1486 46.2315 35.4282 45.4501 35.4282 44.4868C35.4282 43.5236 36.1486 42.7427 37.0378 42.7427C37.9266 42.7427 38.6471 43.5236 38.6471 44.4868Z" fill="#3B82F6"/>
<path d="M22.6592 53.8195H10.2275C5.56347 53.8195 1.78253 49.7215 1.78253 44.6659C1.78253 39.6108 5.56347 35.5134 10.2275 35.5134H22.6592V53.8195Z" fill="white"/>
<path d="M13.8302 33.332H11.7307V28.283H13.8302V33.332Z" fill="#3B82F6"/>
<path d="M17.3266 11.7788H16.6586V11H15.3203V14.0082H16.6586V13.2288H17.3266C18.1385 13.2288 18.7994 13.9452 18.7994 14.8246V20.5188C18.7994 24.1163 16.0985 27.0432 12.7793 27.0432C9.46003 27.0432 6.75957 24.1163 6.75957 20.5188V14.8246C6.75957 13.9452 7.42003 13.2288 8.23191 13.2288H8.63081V14.0082H9.96863V11H8.63081V11.7788H8.23191C6.68222 11.7788 5.42175 13.145 5.42175 14.8246V20.5188C5.42175 21.5949 5.61628 22.6394 6.00019 23.623C6.3705 24.573 6.90113 25.4255 7.5766 26.1576C8.25207 26.8897 9.0391 27.4649 9.91519 27.8662C10.8227 28.2823 11.7864 28.4931 12.7793 28.4931C13.7721 28.4931 14.7363 28.2823 15.6438 27.8662C16.5199 27.4649 17.3069 26.8897 17.9819 26.1576C18.6574 25.4255 19.188 24.573 19.5588 23.623C19.9427 22.6394 20.1372 21.5949 20.1372 20.5188V14.8246C20.1372 13.145 18.8763 11.7788 17.3266 11.7788Z" fill="#3B82F6"/>
<path d="M15.3766 41.1038V43.2442C13.3192 43.2442 11.6537 41.7231 11.6537 39.4933V36.9977H13.7373L13.7059 38.6037C13.7059 39.8199 14.3317 40.8279 15.3766 41.1038Z" fill="#3B82F6"/>
<path d="M22.6634 43.2442H15.3781V41.0977H22.6634V43.2442Z" fill="#3B82F6"/>
<path d="M64.0697 35L58.3405 16.3314H58.194C58.2157 16.7763 58.2483 17.449 58.2917 18.3496C58.3459 19.2394 58.3947 20.1888 58.4382 21.1979C58.4816 22.207 58.5033 23.1185 58.5033 23.9323V35H53.9948V11.2044H60.8633L66.4948 29.401H66.5924L72.5658 11.2044H79.4342V35H74.7305V23.737C74.7305 22.9883 74.7413 22.1257 74.763 21.1491C74.7956 20.1725 74.8335 19.2448 74.877 18.3659C74.9204 17.4761 74.9529 16.8088 74.9746 16.3639H74.8281L68.6921 35H64.0697ZM97.8457 21.0026L102.81 11.2044H108.246L100.352 25.7389V35H95.3392V25.9017L87.4453 11.2044H92.9141L97.8457 21.0026ZM149.398 35H144.369V24.7298H134.945V35H129.9V11.2044H134.945V20.5306H144.369V11.2044H149.398V35ZM174.125 35H160.421V11.2044H174.125V15.3385H165.466V20.5632H173.523V24.6973H165.466V30.8333H174.125V35ZM198.673 35L196.947 29.3359H188.272L186.547 35H181.111L189.509 11.1068H195.678L204.109 35H198.673ZM195.743 25.1042L194.018 19.5703C193.909 19.2014 193.763 18.7294 193.578 18.1543C193.405 17.5684 193.225 16.977 193.041 16.3802C192.867 15.7726 192.726 15.2463 192.618 14.8014C192.509 15.2463 192.357 15.7997 192.162 16.4616C191.978 17.1126 191.799 17.7311 191.625 18.3171C191.451 18.903 191.327 19.3207 191.251 19.5703L189.542 25.1042H195.743ZM212.12 35V11.2044H217.165V30.8333H226.817V35H212.12ZM245.147 35H240.102V15.4036H233.64V11.2044H251.609V15.4036H245.147V35ZM279.77 35H274.74V24.7298H265.316V35H260.271V11.2044H265.316V20.5306H274.74V11.2044H279.77V35Z" fill="#3B82F6"/>
<path d="M54.56 54.9032V54.6232C55.04 54.6232 55.32 54.5344 55.4 54.3566V47.6499C55.32 47.4721 55.04 47.3832 54.56 47.3832V47.1032H59.9333V48.3966H59.6533C59.6533 47.9166 59.5644 47.6366 59.3867 47.5566H56.6267V50.6232H58.4933C58.6711 50.5432 58.76 50.2632 58.76 49.7832H59.04V51.9166H58.76C58.76 51.4366 58.6711 51.1566 58.4933 51.0766H56.6267V54.3566C56.7067 54.5344 56.9867 54.6232 57.4667 54.6232V54.9032H54.56ZM64.6897 54.9032V54.6232C65.1697 54.6232 65.4497 54.5344 65.5297 54.3566V47.6499C65.4497 47.4721 65.1697 47.3832 64.6897 47.3832V47.1032H67.703C68.8052 47.1032 69.6408 47.3032 70.2097 47.7032C70.7786 48.1032 71.063 48.561 71.063 49.0766C71.063 49.5655 70.9164 49.9966 70.623 50.3699C70.3297 50.7344 69.8941 51.001 69.3164 51.1699L71.0897 54.3432C71.1786 54.5299 71.4719 54.6232 71.9697 54.6232V54.9032H71.3964C70.7741 54.9032 70.3697 54.8677 70.183 54.7966C69.9964 54.7255 69.8097 54.5299 69.623 54.2099L68.0097 51.3566H66.7564V54.3566C66.8364 54.5344 67.1164 54.6232 67.5964 54.6232V54.9032H64.6897ZM66.7564 47.5566V50.9032H67.863C68.5741 50.9032 69.063 50.7655 69.3297 50.4899C69.5964 50.2144 69.7297 49.7477 69.7297 49.0899C69.7297 48.601 69.5786 48.2232 69.2764 47.9566C68.983 47.6899 68.4586 47.5566 67.703 47.5566H66.7564ZM77.6637 50.9032C77.6637 51.4899 77.7437 52.0544 77.9037 52.5966C78.0726 53.1299 78.3437 53.5966 78.7171 53.9966C79.0993 54.3877 79.5526 54.5832 80.0771 54.5832C80.6015 54.5832 81.0415 54.3966 81.3971 54.0232C81.7615 53.6499 82.0149 53.2144 82.1571 52.7166C82.3082 52.2099 82.3837 51.6766 82.3837 51.1166C82.3837 50.5388 82.2993 49.9788 82.1304 49.4366C81.9615 48.8855 81.686 48.4144 81.3037 48.0232C80.9304 47.6232 80.486 47.4232 79.9704 47.4232C79.5704 47.4232 79.2149 47.5299 78.9037 47.7432C78.6015 47.9566 78.3615 48.241 78.1837 48.5966C78.0149 48.9432 77.886 49.3121 77.7971 49.7032C77.7082 50.0944 77.6637 50.4944 77.6637 50.9032ZM76.3304 51.0099C76.3304 49.8988 76.6771 48.9477 77.3704 48.1566C78.0637 47.3655 78.9482 46.9699 80.0237 46.9699C81.0993 46.9699 81.9837 47.3655 82.6771 48.1566C83.3704 48.9477 83.7171 49.8988 83.7171 51.0099C83.7171 52.121 83.366 53.0721 82.6637 53.8632C81.9704 54.6455 81.0904 55.0366 80.0237 55.0366C78.9393 55.0366 78.0504 54.6455 77.3571 53.8632C76.6726 53.081 76.3304 52.1299 76.3304 51.0099ZM88.6209 54.9032V54.6232C89.1009 54.6232 89.3809 54.5344 89.4609 54.3566V47.6499C89.3809 47.4721 89.1009 47.3832 88.6209 47.3832V47.1032H90.5676L93.4076 53.3032L96.2476 47.1032H98.2209V47.3832C97.7409 47.3832 97.4609 47.4721 97.3809 47.6499V54.3566C97.4609 54.5344 97.7409 54.6232 98.2209 54.6232V54.9032H95.3143V54.6232C95.7943 54.6232 96.0743 54.5344 96.1543 54.3566V48.3699L93.1676 54.9032H92.9676L89.9143 48.2899V54.3566C89.9943 54.5344 90.2743 54.6232 90.7543 54.6232V54.9032H88.6209ZM112.34 51.0366V54.4499H113.474C114.718 54.4499 115.34 53.8455 115.34 52.6366C115.34 52.2188 115.185 51.8499 114.874 51.5299C114.562 51.201 114.042 51.0366 113.314 51.0366H112.34ZM112.34 47.5566V50.6499H112.887C114.131 50.6499 114.754 50.0855 114.754 48.9566C114.754 48.0232 114.078 47.5566 112.727 47.5566H112.34ZM110.274 54.9032V54.6232C110.754 54.6232 111.034 54.5344 111.114 54.3566V47.6499C111.034 47.4721 110.754 47.3832 110.274 47.3832V47.1032H112.727C113.838 47.1032 114.674 47.2855 115.234 47.6499C115.802 48.0144 116.087 48.4455 116.087 48.9432C116.087 49.8499 115.616 50.4632 114.674 50.7832C115.34 50.9344 115.838 51.1832 116.167 51.5299C116.505 51.8677 116.674 52.2321 116.674 52.6232C116.674 53.2988 116.402 53.8499 115.86 54.2766C115.327 54.6944 114.531 54.9032 113.474 54.9032H110.274ZM121.484 54.9032V54.6232C121.964 54.6232 122.244 54.5344 122.324 54.3566V47.6499C122.244 47.4721 121.964 47.3832 121.484 47.3832V47.1032H124.391V47.3832C123.911 47.3832 123.631 47.4721 123.551 47.6499V54.3566C123.631 54.5344 123.911 54.6232 124.391 54.6232V54.9032H121.484ZM129.374 54.9032V54.6232C129.854 54.6232 130.134 54.5344 130.214 54.3566V47.6499C130.134 47.4721 129.854 47.3832 129.374 47.3832V47.1032H132.387C133.49 47.1032 134.325 47.3032 134.894 47.7032C135.463 48.1032 135.747 48.561 135.747 49.0766C135.747 49.5655 135.601 49.9966 135.307 50.3699C135.014 50.7344 134.579 51.001 134.001 51.1699L135.774 54.3432C135.863 54.5299 136.156 54.6232 136.654 54.6232V54.9032H136.081C135.459 54.9032 135.054 54.8677 134.867 54.7966C134.681 54.7255 134.494 54.5299 134.307 54.2099L132.694 51.3566H131.441V54.3566C131.521 54.5344 131.801 54.6232 132.281 54.6232V54.9032H129.374ZM131.441 47.5566V50.9032H132.547C133.259 50.9032 133.747 50.7655 134.014 50.4899C134.281 50.2144 134.414 49.7477 134.414 49.0899C134.414 48.601 134.263 48.2232 133.961 47.9566C133.667 47.6899 133.143 47.5566 132.387 47.5566H131.441ZM140.551 47.1032H147.244V48.3966H146.964C146.964 47.9166 146.875 47.6366 146.698 47.5566H144.511V54.3566C144.591 54.5344 144.871 54.6232 145.351 54.6232V54.9032H142.444V54.6232C142.924 54.6232 143.204 54.5344 143.284 54.3566V47.5566H141.098C140.92 47.6366 140.831 47.9166 140.831 48.3966H140.551V47.1032ZM151.912 54.9032V54.6232C152.392 54.6232 152.672 54.5344 152.752 54.3566V47.6499C152.672 47.4721 152.392 47.3832 151.912 47.3832V47.1032H154.819V47.3832C154.339 47.3832 154.059 47.4721 153.979 47.6499V50.6232H157.392V47.6499C157.312 47.4721 157.032 47.3832 156.552 47.3832V47.1032H159.459V47.3832C158.979 47.3832 158.699 47.4721 158.619 47.6499V54.3566C158.699 54.5344 158.979 54.6232 159.459 54.6232V54.9032H156.552V54.6232C157.032 54.6232 157.312 54.5344 157.392 54.3566V51.0766H153.979V54.3566C154.059 54.5344 154.339 54.6232 154.819 54.6232V54.9032H151.912ZM171.2 47.1032H177.894V48.3966H177.614C177.614 47.9166 177.525 47.6366 177.347 47.5566H175.16V54.3566C175.24 54.5344 175.52 54.6232 176 54.6232V54.9032H173.094V54.6232C173.574 54.6232 173.854 54.5344 173.934 54.3566V47.5566H171.747C171.569 47.6366 171.48 47.9166 171.48 48.3966H171.2V47.1032ZM183.726 50.9032C183.726 51.4899 183.806 52.0544 183.966 52.5966C184.135 53.1299 184.406 53.5966 184.78 53.9966C185.162 54.3877 185.615 54.5832 186.14 54.5832C186.664 54.5832 187.104 54.3966 187.46 54.0232C187.824 53.6499 188.077 53.2144 188.22 52.7166C188.371 52.2099 188.446 51.6766 188.446 51.1166C188.446 50.5388 188.362 49.9788 188.193 49.4366C188.024 48.8855 187.748 48.4144 187.366 48.0232C186.993 47.6232 186.548 47.4232 186.033 47.4232C185.633 47.4232 185.277 47.5299 184.966 47.7432C184.664 47.9566 184.424 48.241 184.246 48.5966C184.077 48.9432 183.948 49.3121 183.86 49.7032C183.771 50.0944 183.726 50.4944 183.726 50.9032ZM182.393 51.0099C182.393 49.8988 182.74 48.9477 183.433 48.1566C184.126 47.3655 185.011 46.9699 186.086 46.9699C187.162 46.9699 188.046 47.3655 188.74 48.1566C189.433 48.9477 189.78 49.8988 189.78 51.0099C189.78 52.121 189.428 53.0721 188.726 53.8632C188.033 54.6455 187.153 55.0366 186.086 55.0366C185.002 55.0366 184.113 54.6455 183.42 53.8632C182.735 53.081 182.393 52.1299 182.393 51.0099ZM201.844 54.9032V54.6232C202.324 54.6232 202.604 54.5344 202.684 54.3566V47.6499C202.604 47.4721 202.324 47.3832 201.844 47.3832V47.1032H204.751V47.3832C204.271 47.3832 203.991 47.4721 203.911 47.6499V54.3566C203.991 54.5344 204.271 54.6232 204.751 54.6232V54.9032H201.844ZM209.734 54.9032V54.6232C210.214 54.6232 210.494 54.5344 210.574 54.3566V47.6499C210.494 47.4721 210.214 47.3832 209.734 47.3832V47.1032H211.521L215.934 52.5566V47.6499C215.854 47.4721 215.574 47.3832 215.094 47.3832V47.1032H217.228V47.3832C216.748 47.3832 216.468 47.4721 216.388 47.6499V54.9032H216.268L211.028 48.2766V54.3566C211.108 54.5344 211.388 54.6232 211.868 54.6232V54.9032H209.734ZM222.091 54.9032V54.6232C222.571 54.6232 222.851 54.5344 222.931 54.3566V47.6499C222.851 47.4721 222.571 47.3832 222.091 47.3832V47.1032H227.464V48.3966H227.184C227.184 47.9166 227.095 47.6366 226.917 47.5566H224.157V50.6232H226.024C226.202 50.5432 226.291 50.2632 226.291 49.7832H226.571V51.9166H226.291C226.291 51.4366 226.202 51.1566 226.024 51.0766H224.157V54.3566C224.237 54.5344 224.517 54.6232 224.997 54.6232V54.9032H222.091ZM232.22 54.9032V54.6232C232.7 54.6232 232.98 54.5344 233.06 54.3566V47.6499C232.98 47.4721 232.7 47.3832 232.22 47.3832V47.1032H235.127V47.3832C234.647 47.3832 234.367 47.4721 234.287 47.6499V54.3566C234.367 54.5344 234.647 54.6232 235.127 54.6232V54.9032H232.22ZM240.111 54.9032V54.6232C240.591 54.6232 240.871 54.5344 240.951 54.3566V47.6499C240.871 47.4721 240.591 47.3832 240.111 47.3832V47.1032H241.897L246.311 52.5566V47.6499C246.231 47.4721 245.951 47.3832 245.471 47.3832V47.1032H247.604V47.3832C247.124 47.3832 246.844 47.4721 246.764 47.6499V54.9032H246.644L241.404 48.2766V54.3566C241.484 54.5344 241.764 54.6232 242.244 54.6232V54.9032H240.111ZM252.467 54.9032V54.6232C252.947 54.6232 253.227 54.5344 253.307 54.3566V47.6499C253.227 47.4721 252.947 47.3832 252.467 47.3832V47.1032H255.373V47.3832C254.893 47.3832 254.613 47.4721 254.533 47.6499V54.3566C254.613 54.5344 254.893 54.6232 255.373 54.6232V54.9032H252.467ZM260.037 47.1032H266.73V48.3966H266.45C266.45 47.9166 266.361 47.6366 266.184 47.5566H263.997V54.3566C264.077 54.5344 264.357 54.6232 264.837 54.6232V54.9032H261.93V54.6232C262.41 54.6232 262.69 54.5344 262.77 54.3566V47.5566H260.584C260.406 47.6366 260.317 47.9166 260.317 48.3966H260.037V47.1032ZM273.638 47.1032V47.3832C273.22 47.3832 272.962 47.4366 272.865 47.5432L274.931 51.1566L277.065 47.6232C276.967 47.4632 276.691 47.3832 276.238 47.3832V47.1032H278.425V47.3832C278.051 47.3832 277.798 47.441 277.665 47.5566L275.265 51.5432V54.3566C275.345 54.5344 275.625 54.6232 276.105 54.6232V54.9032H273.198V54.6232C273.678 54.6232 273.958 54.5344 274.038 54.3566V51.9699L271.571 47.6499C271.447 47.4721 271.162 47.3832 270.718 47.3832V47.1032H273.638Z" fill="#384252"/>
</svg>
